<mxfile host="Electron" modified="2024-06-11T14:28:17.935Z" agent="Mozilla/5.0 (Windows NT 10.0; Win64; x64) AppleWebKit/537.36 (KHTML, like Gecko) draw.io/24.5.1 Chrome/124.0.6367.207 Electron/30.0.6 Safari/537.36" etag="xhUpudjyc76eYhLeue1l" version="24.5.1" type="device">
  <diagram name="Page-1" id="e7e014a7-5840-1c2e-5031-d8a46d1fe8dd">
    <mxGraphModel dx="2100" dy="1242" grid="1" gridSize="10" guides="1" tooltips="1" connect="1" arrows="1" fold="1" page="1" pageScale="1" pageWidth="1169" pageHeight="826" background="none" math="0" shadow="0">
      <root>
        <mxCell id="0" />
        <mxCell id="1" parent="0" />
        <mxCell id="2" value="Administrador" style="swimlane;whiteSpace=wrap;strokeColor=#000000;" parent="1" vertex="1">
          <mxGeometry x="164.5" y="128" width="280" height="382" as="geometry" />
        </mxCell>
        <mxCell id="5" value="" style="ellipse;shape=startState;fillColor=#000000;strokeColor=#000000;" parent="2" vertex="1">
          <mxGeometry x="100" y="40" width="30" height="30" as="geometry" />
        </mxCell>
        <mxCell id="6" value="" style="edgeStyle=elbowEdgeStyle;elbow=horizontal;verticalAlign=bottom;endArrow=open;endSize=8;strokeColor=#000000;endFill=1;rounded=0" parent="2" source="5" target="7" edge="1">
          <mxGeometry x="100" y="40" as="geometry">
            <mxPoint x="115" y="110" as="targetPoint" />
          </mxGeometry>
        </mxCell>
        <mxCell id="7" value="Ingresar al formulario&#xa;de autenticación" style="strokeColor=#000000;" parent="2" vertex="1">
          <mxGeometry x="60" y="92" width="120" height="30" as="geometry" />
        </mxCell>
        <mxCell id="8" value="Ingresar credenciales&#xa;de autenticación" style="strokeColor=#000000;" parent="2" vertex="1">
          <mxGeometry x="57.5" y="142" width="125" height="38" as="geometry" />
        </mxCell>
        <mxCell id="9" value="" style="endArrow=open;strokeColor=#000000;endFill=1;rounded=0" parent="2" source="7" target="8" edge="1">
          <mxGeometry relative="1" as="geometry" />
        </mxCell>
        <mxCell id="3" value="Sistema" style="swimlane;whiteSpace=wrap;startSize=23;strokeColor=#000000;" parent="1" vertex="1">
          <mxGeometry x="445" y="128" width="335" height="382" as="geometry" />
        </mxCell>
        <mxCell id="16" value="Valida las credenciales" style="strokeColor=#000000;" parent="3" vertex="1">
          <mxGeometry x="97" y="147" width="144.5" height="28" as="geometry" />
        </mxCell>
        <mxCell id="SRIS72dYtCs7Gk2PJul2-41" value="Credenciales&amp;nbsp;&lt;div&gt;Correctas&lt;/div&gt;" style="rhombus;whiteSpace=wrap;html=1;strokeColor=#000000;" parent="3" vertex="1">
          <mxGeometry x="99.25" y="202" width="139.5" height="48" as="geometry" />
        </mxCell>
        <mxCell id="SRIS72dYtCs7Gk2PJul2-42" value="Redirige al panel&#xa;de administración" style="strokeColor=#000000;" parent="3" vertex="1">
          <mxGeometry x="197.75" y="272" width="114.5" height="38" as="geometry" />
        </mxCell>
        <mxCell id="SRIS72dYtCs7Gk2PJul2-43" value="Muestra un mensaje&#xa;de error" style="strokeColor=#000000;" parent="3" vertex="1">
          <mxGeometry x="15" y="272" width="114.5" height="38" as="geometry" />
        </mxCell>
        <mxCell id="38" value="" style="ellipse;shape=endState;fillColor=#000000;strokeColor=#000000;" parent="3" vertex="1">
          <mxGeometry x="240" y="332" width="30" height="30" as="geometry" />
        </mxCell>
        <mxCell id="39" value="" style="endArrow=open;strokeColor=#000000;endFill=1;rounded=0;exitX=0.5;exitY=1;exitDx=0;exitDy=0;" parent="3" source="SRIS72dYtCs7Gk2PJul2-42" target="38" edge="1">
          <mxGeometry relative="1" as="geometry">
            <mxPoint x="256.5" y="322" as="sourcePoint" />
          </mxGeometry>
        </mxCell>
        <mxCell id="SRIS72dYtCs7Gk2PJul2-45" value="" style="edgeStyle=elbowEdgeStyle;elbow=horizontal;verticalAlign=bottom;endArrow=open;endSize=8;strokeColor=#000000;endFill=1;rounded=0;exitX=0.5;exitY=1;exitDx=0;exitDy=0;entryX=0.5;entryY=0;entryDx=0;entryDy=0;" parent="3" source="16" target="SRIS72dYtCs7Gk2PJul2-41" edge="1">
          <mxGeometry x="-344.5" y="-88" as="geometry">
            <mxPoint x="244.5" y="202" as="targetPoint" />
            <mxPoint x="-58" y="171" as="sourcePoint" />
          </mxGeometry>
        </mxCell>
        <mxCell id="SRIS72dYtCs7Gk2PJul2-46" value="" style="edgeStyle=elbowEdgeStyle;elbow=horizontal;verticalAlign=bottom;endArrow=open;endSize=8;strokeColor=#000000;endFill=1;rounded=0;exitX=1;exitY=0.5;exitDx=0;exitDy=0;entryX=0.5;entryY=0;entryDx=0;entryDy=0;" parent="3" source="SRIS72dYtCs7Gk2PJul2-41" target="SRIS72dYtCs7Gk2PJul2-42" edge="1">
          <mxGeometry x="-789.5" y="-216" as="geometry">
            <mxPoint x="179.5" y="212" as="targetPoint" />
            <mxPoint x="179.5" y="185" as="sourcePoint" />
            <Array as="points">
              <mxPoint x="254.5" y="232" />
            </Array>
          </mxGeometry>
        </mxCell>
        <mxCell id="SRIS72dYtCs7Gk2PJul2-47" value="" style="edgeStyle=elbowEdgeStyle;elbow=horizontal;verticalAlign=bottom;endArrow=open;endSize=8;strokeColor=#000000;endFill=1;rounded=0;exitX=0;exitY=0.5;exitDx=0;exitDy=0;" parent="3" source="SRIS72dYtCs7Gk2PJul2-41" edge="1">
          <mxGeometry x="-1234.5" y="-344" as="geometry">
            <mxPoint x="65" y="272" as="targetPoint" />
            <mxPoint x="248.5" y="236" as="sourcePoint" />
            <Array as="points">
              <mxPoint x="65" y="252" />
            </Array>
          </mxGeometry>
        </mxCell>
        <mxCell id="SRIS72dYtCs7Gk2PJul2-48" value="Si" style="text;html=1;align=center;verticalAlign=middle;whiteSpace=wrap;rounded=0;strokeColor=#000000;" parent="3" vertex="1">
          <mxGeometry x="255" y="220" width="25" height="20" as="geometry" />
        </mxCell>
        <mxCell id="SRIS72dYtCs7Gk2PJul2-49" value="No" style="text;html=1;align=center;verticalAlign=middle;whiteSpace=wrap;rounded=0;strokeColor=#000000;" parent="3" vertex="1">
          <mxGeometry x="35" y="220" width="25" height="20" as="geometry" />
        </mxCell>
        <mxCell id="SRIS72dYtCs7Gk2PJul2-44" value="" style="edgeStyle=elbowEdgeStyle;elbow=horizontal;verticalAlign=bottom;endArrow=open;endSize=8;strokeColor=#000000;endFill=1;rounded=0;entryX=0;entryY=0.5;entryDx=0;entryDy=0;exitX=1;exitY=0.5;exitDx=0;exitDy=0;" parent="1" source="8" target="16" edge="1">
          <mxGeometry x="100" y="40" as="geometry">
            <mxPoint x="289.5" y="230" as="targetPoint" />
            <mxPoint x="289.5" y="208" as="sourcePoint" />
          </mxGeometry>
        </mxCell>
        <mxCell id="SRIS72dYtCs7Gk2PJul2-50" value="" style="edgeStyle=elbowEdgeStyle;elbow=horizontal;verticalAlign=bottom;endArrow=open;endSize=8;strokeColor=#000000;endFill=1;rounded=0;entryX=0.5;entryY=1;entryDx=0;entryDy=0;exitX=0;exitY=0.5;exitDx=0;exitDy=0;" parent="1" source="SRIS72dYtCs7Gk2PJul2-43" target="8" edge="1">
          <mxGeometry x="100" y="40" as="geometry">
            <mxPoint x="552" y="299" as="targetPoint" />
            <mxPoint x="357" y="299" as="sourcePoint" />
            <Array as="points">
              <mxPoint x="285" y="360" />
            </Array>
          </mxGeometry>
        </mxCell>
        <mxCell id="SRIS72dYtCs7Gk2PJul2-51" value="&lt;font style=&quot;font-size: 18px;&quot;&gt;&lt;b&gt;Autenticarse en el sistema&lt;/b&gt;&lt;/font&gt;" style="text;html=1;align=center;verticalAlign=middle;whiteSpace=wrap;rounded=0;strokeColor=#000000;" parent="1" vertex="1">
          <mxGeometry x="164.5" y="80" width="255" height="30" as="geometry" />
        </mxCell>
        <mxCell id="SRIS72dYtCs7Gk2PJul2-52" value="Administrador" style="swimlane;whiteSpace=wrap;strokeColor=#000000;" parent="1" vertex="1">
          <mxGeometry x="164.5" y="568" width="280" height="472" as="geometry" />
        </mxCell>
        <mxCell id="SRIS72dYtCs7Gk2PJul2-53" value="" style="ellipse;shape=startState;fillColor=#000000;strokeColor=#000000;" parent="SRIS72dYtCs7Gk2PJul2-52" vertex="1">
          <mxGeometry x="100" y="40" width="30" height="30" as="geometry" />
        </mxCell>
        <mxCell id="SRIS72dYtCs7Gk2PJul2-54" value="" style="edgeStyle=elbowEdgeStyle;elbow=horizontal;verticalAlign=bottom;endArrow=open;endSize=8;strokeColor=#000000;endFill=1;rounded=0" parent="SRIS72dYtCs7Gk2PJul2-52" source="SRIS72dYtCs7Gk2PJul2-53" target="SRIS72dYtCs7Gk2PJul2-55" edge="1">
          <mxGeometry x="100" y="40" as="geometry">
            <mxPoint x="115" y="110" as="targetPoint" />
          </mxGeometry>
        </mxCell>
        <mxCell id="SRIS72dYtCs7Gk2PJul2-55" value="Selecciona la opción&#xa;Gestionar Inventario" style="strokeColor=#000000;" parent="SRIS72dYtCs7Gk2PJul2-52" vertex="1">
          <mxGeometry x="60" y="92" width="120" height="30" as="geometry" />
        </mxCell>
        <mxCell id="SRIS72dYtCs7Gk2PJul2-56" value="Selecciona la opción&#xa;agregar producto" style="strokeColor=#000000;" parent="SRIS72dYtCs7Gk2PJul2-52" vertex="1">
          <mxGeometry x="57.5" y="142" width="125" height="38" as="geometry" />
        </mxCell>
        <mxCell id="SRIS72dYtCs7Gk2PJul2-74" value="Ingresa los detalles del&#xa;producto" style="strokeColor=#000000;" parent="SRIS72dYtCs7Gk2PJul2-52" vertex="1">
          <mxGeometry x="55" y="212" width="130" height="38" as="geometry" />
        </mxCell>
        <mxCell id="SRIS72dYtCs7Gk2PJul2-75" value="" style="edgeStyle=elbowEdgeStyle;elbow=horizontal;verticalAlign=bottom;endArrow=open;endSize=8;strokeColor=#000000;endFill=1;rounded=0;exitX=0.5;exitY=1;exitDx=0;exitDy=0;entryX=0.5;entryY=0;entryDx=0;entryDy=0;" parent="SRIS72dYtCs7Gk2PJul2-52" source="SRIS72dYtCs7Gk2PJul2-56" target="SRIS72dYtCs7Gk2PJul2-74" edge="1">
          <mxGeometry x="-64.5" y="-528" as="geometry">
            <mxPoint x="125" y="102" as="targetPoint" />
            <mxPoint x="125" y="80" as="sourcePoint" />
          </mxGeometry>
        </mxCell>
        <mxCell id="SRIS72dYtCs7Gk2PJul2-58" value="Sistema" style="swimlane;whiteSpace=wrap;startSize=23;strokeColor=#000000;" parent="1" vertex="1">
          <mxGeometry x="445" y="568" width="342.25" height="472" as="geometry" />
        </mxCell>
        <mxCell id="SRIS72dYtCs7Gk2PJul2-59" value="Muestra el inventario&#xa;actual del sistema" style="strokeColor=#000000;" parent="SRIS72dYtCs7Gk2PJul2-58" vertex="1">
          <mxGeometry x="99.25" y="92" width="144.5" height="28" as="geometry" />
        </mxCell>
        <mxCell id="SRIS72dYtCs7Gk2PJul2-62" value="Presenta formulario &#xa;para agregar producto" style="strokeColor=#000000;" parent="SRIS72dYtCs7Gk2PJul2-58" vertex="1">
          <mxGeometry x="99.25" y="162" width="130.75" height="38" as="geometry" />
        </mxCell>
        <mxCell id="SRIS72dYtCs7Gk2PJul2-76" value="Valida los datos" style="strokeColor=#000000;" parent="SRIS72dYtCs7Gk2PJul2-58" vertex="1">
          <mxGeometry x="98" y="232" width="144.5" height="28" as="geometry" />
        </mxCell>
        <mxCell id="SRIS72dYtCs7Gk2PJul2-77" value="Datos especificados&lt;div&gt;de manera correcta&lt;/div&gt;" style="rhombus;whiteSpace=wrap;html=1;strokeColor=#000000;" parent="SRIS72dYtCs7Gk2PJul2-58" vertex="1">
          <mxGeometry x="100.25" y="287" width="139.5" height="48" as="geometry" />
        </mxCell>
        <mxCell id="SRIS72dYtCs7Gk2PJul2-78" value="Guarda el nuevo &#xa;producto en el &#xa;inventario" style="strokeColor=#000000;" parent="SRIS72dYtCs7Gk2PJul2-58" vertex="1">
          <mxGeometry x="195.38" y="357" width="121.25" height="43" as="geometry" />
        </mxCell>
        <mxCell id="SRIS72dYtCs7Gk2PJul2-79" value="Muestra un mensaje&#xa;de error" style="strokeColor=#000000;" parent="SRIS72dYtCs7Gk2PJul2-58" vertex="1">
          <mxGeometry x="16" y="357" width="114.5" height="38" as="geometry" />
        </mxCell>
        <mxCell id="SRIS72dYtCs7Gk2PJul2-80" value="" style="ellipse;shape=endState;fillColor=#000000;strokeColor=#000000;" parent="SRIS72dYtCs7Gk2PJul2-58" vertex="1">
          <mxGeometry x="241" y="417" width="30" height="30" as="geometry" />
        </mxCell>
        <mxCell id="SRIS72dYtCs7Gk2PJul2-81" value="" style="endArrow=open;strokeColor=#000000;endFill=1;rounded=0;exitX=0.5;exitY=1;exitDx=0;exitDy=0;" parent="SRIS72dYtCs7Gk2PJul2-58" source="SRIS72dYtCs7Gk2PJul2-78" target="SRIS72dYtCs7Gk2PJul2-80" edge="1">
          <mxGeometry relative="1" as="geometry">
            <mxPoint x="257.5" y="407" as="sourcePoint" />
          </mxGeometry>
        </mxCell>
        <mxCell id="SRIS72dYtCs7Gk2PJul2-82" value="" style="edgeStyle=elbowEdgeStyle;elbow=horizontal;verticalAlign=bottom;endArrow=open;endSize=8;strokeColor=#000000;endFill=1;rounded=0;exitX=0.5;exitY=1;exitDx=0;exitDy=0;entryX=0.5;entryY=0;entryDx=0;entryDy=0;" parent="SRIS72dYtCs7Gk2PJul2-58" source="SRIS72dYtCs7Gk2PJul2-76" target="SRIS72dYtCs7Gk2PJul2-77" edge="1">
          <mxGeometry x="-789.5" y="-656" as="geometry">
            <mxPoint x="245.5" y="287" as="targetPoint" />
            <mxPoint x="-57" y="256" as="sourcePoint" />
          </mxGeometry>
        </mxCell>
        <mxCell id="SRIS72dYtCs7Gk2PJul2-83" value="" style="edgeStyle=elbowEdgeStyle;elbow=horizontal;verticalAlign=bottom;endArrow=open;endSize=8;strokeColor=#000000;endFill=1;rounded=0;exitX=1;exitY=0.5;exitDx=0;exitDy=0;entryX=0.5;entryY=0;entryDx=0;entryDy=0;" parent="SRIS72dYtCs7Gk2PJul2-58" source="SRIS72dYtCs7Gk2PJul2-77" target="SRIS72dYtCs7Gk2PJul2-78" edge="1">
          <mxGeometry x="-1234.5" y="-784" as="geometry">
            <mxPoint x="180.5" y="297" as="targetPoint" />
            <mxPoint x="180.5" y="270" as="sourcePoint" />
            <Array as="points">
              <mxPoint x="255.5" y="317" />
            </Array>
          </mxGeometry>
        </mxCell>
        <mxCell id="SRIS72dYtCs7Gk2PJul2-84" value="" style="edgeStyle=elbowEdgeStyle;elbow=horizontal;verticalAlign=bottom;endArrow=open;endSize=8;strokeColor=#000000;endFill=1;rounded=0;exitX=0;exitY=0.5;exitDx=0;exitDy=0;" parent="SRIS72dYtCs7Gk2PJul2-58" source="SRIS72dYtCs7Gk2PJul2-77" edge="1">
          <mxGeometry x="-1679.5" y="-912" as="geometry">
            <mxPoint x="66" y="357" as="targetPoint" />
            <mxPoint x="249.5" y="321" as="sourcePoint" />
            <Array as="points">
              <mxPoint x="66" y="337" />
            </Array>
          </mxGeometry>
        </mxCell>
        <mxCell id="SRIS72dYtCs7Gk2PJul2-85" value="Si" style="text;html=1;align=center;verticalAlign=middle;whiteSpace=wrap;rounded=0;strokeColor=#000000;" parent="SRIS72dYtCs7Gk2PJul2-58" vertex="1">
          <mxGeometry x="256" y="305" width="25" height="20" as="geometry" />
        </mxCell>
        <mxCell id="SRIS72dYtCs7Gk2PJul2-86" value="No" style="text;html=1;align=center;verticalAlign=middle;whiteSpace=wrap;rounded=0;strokeColor=#000000;" parent="SRIS72dYtCs7Gk2PJul2-58" vertex="1">
          <mxGeometry x="36" y="305" width="25" height="20" as="geometry" />
        </mxCell>
        <mxCell id="SRIS72dYtCs7Gk2PJul2-87" value="Pide ingresar datos&#xa;validos" style="strokeColor=#000000;" parent="SRIS72dYtCs7Gk2PJul2-58" vertex="1">
          <mxGeometry x="16" y="409" width="114.5" height="38" as="geometry" />
        </mxCell>
        <mxCell id="SRIS72dYtCs7Gk2PJul2-88" value="" style="edgeStyle=elbowEdgeStyle;elbow=horizontal;verticalAlign=bottom;endArrow=open;endSize=8;strokeColor=#000000;endFill=1;rounded=0;entryX=0.5;entryY=0;entryDx=0;entryDy=0;exitX=0.5;exitY=1;exitDx=0;exitDy=0;" parent="SRIS72dYtCs7Gk2PJul2-58" source="SRIS72dYtCs7Gk2PJul2-79" target="SRIS72dYtCs7Gk2PJul2-87" edge="1">
          <mxGeometry x="-344.5" y="-88" as="geometry">
            <mxPoint x="119" y="287" as="targetPoint" />
            <mxPoint x="-75" y="278" as="sourcePoint" />
            <Array as="points" />
          </mxGeometry>
        </mxCell>
        <mxCell id="SRIS72dYtCs7Gk2PJul2-70" value="" style="edgeStyle=elbowEdgeStyle;elbow=horizontal;verticalAlign=bottom;endArrow=open;endSize=8;strokeColor=#000000;endFill=1;rounded=0;entryX=0;entryY=0.5;entryDx=0;entryDy=0;exitX=1;exitY=0.5;exitDx=0;exitDy=0;" parent="1" source="SRIS72dYtCs7Gk2PJul2-55" target="SRIS72dYtCs7Gk2PJul2-59" edge="1">
          <mxGeometry x="100" y="40" as="geometry">
            <mxPoint x="289.5" y="670" as="targetPoint" />
            <mxPoint x="289.5" y="648" as="sourcePoint" />
          </mxGeometry>
        </mxCell>
        <mxCell id="SRIS72dYtCs7Gk2PJul2-72" value="&lt;font style=&quot;font-size: 18px;&quot;&gt;&lt;b&gt;Gestrionar Inventario - Agregar Nuevo Producto&lt;/b&gt;&lt;/font&gt;" style="text;html=1;align=center;verticalAlign=middle;whiteSpace=wrap;rounded=0;strokeColor=#000000;" parent="1" vertex="1">
          <mxGeometry x="164.5" y="520" width="455.5" height="30" as="geometry" />
        </mxCell>
        <mxCell id="SRIS72dYtCs7Gk2PJul2-65" value="" style="edgeStyle=elbowEdgeStyle;elbow=horizontal;verticalAlign=bottom;endArrow=open;endSize=8;strokeColor=#000000;endFill=1;rounded=0;exitX=0.5;exitY=1;exitDx=0;exitDy=0;entryX=1;entryY=0.25;entryDx=0;entryDy=0;" parent="1" source="SRIS72dYtCs7Gk2PJul2-59" target="SRIS72dYtCs7Gk2PJul2-56" edge="1">
          <mxGeometry x="100.5" y="480" as="geometry">
            <mxPoint x="689.5" y="770" as="targetPoint" />
            <mxPoint x="387" y="739" as="sourcePoint" />
            <Array as="points">
              <mxPoint x="617" y="710" />
            </Array>
          </mxGeometry>
        </mxCell>
        <mxCell id="SRIS72dYtCs7Gk2PJul2-73" value="" style="edgeStyle=elbowEdgeStyle;elbow=horizontal;verticalAlign=bottom;endArrow=open;endSize=8;strokeColor=#000000;endFill=1;rounded=0;entryX=0;entryY=0.5;entryDx=0;entryDy=0;" parent="1" target="SRIS72dYtCs7Gk2PJul2-62" edge="1">
          <mxGeometry x="100.5" y="480" as="geometry">
            <mxPoint x="357" y="730" as="targetPoint" />
            <mxPoint x="350" y="740" as="sourcePoint" />
            <Array as="points" />
          </mxGeometry>
        </mxCell>
        <mxCell id="SRIS72dYtCs7Gk2PJul2-89" value="" style="edgeStyle=elbowEdgeStyle;elbow=horizontal;verticalAlign=bottom;endArrow=open;endSize=8;strokeColor=#000000;endFill=1;rounded=0;entryX=0.5;entryY=1;entryDx=0;entryDy=0;exitX=0;exitY=0.5;exitDx=0;exitDy=0;" parent="1" source="SRIS72dYtCs7Gk2PJul2-87" target="SRIS72dYtCs7Gk2PJul2-74" edge="1">
          <mxGeometry x="100.5" y="480" as="geometry">
            <mxPoint x="554" y="759" as="targetPoint" />
            <mxPoint x="360" y="750" as="sourcePoint" />
            <Array as="points">
              <mxPoint x="285" y="910" />
            </Array>
          </mxGeometry>
        </mxCell>
        <mxCell id="SRIS72dYtCs7Gk2PJul2-118" value="Administrador" style="swimlane;whiteSpace=wrap;strokeColor=#000000;" parent="1" vertex="1">
          <mxGeometry x="840" y="568" width="280" height="472" as="geometry" />
        </mxCell>
        <mxCell id="SRIS72dYtCs7Gk2PJul2-119" value="" style="ellipse;shape=startState;fillColor=#000000;strokeColor=#000000;" parent="SRIS72dYtCs7Gk2PJul2-118" vertex="1">
          <mxGeometry x="100" y="40" width="30" height="30" as="geometry" />
        </mxCell>
        <mxCell id="SRIS72dYtCs7Gk2PJul2-120" value="" style="edgeStyle=elbowEdgeStyle;elbow=horizontal;verticalAlign=bottom;endArrow=open;endSize=8;strokeColor=#000000;endFill=1;rounded=0" parent="SRIS72dYtCs7Gk2PJul2-118" source="SRIS72dYtCs7Gk2PJul2-119" target="SRIS72dYtCs7Gk2PJul2-121" edge="1">
          <mxGeometry x="100" y="40" as="geometry">
            <mxPoint x="115" y="110" as="targetPoint" />
          </mxGeometry>
        </mxCell>
        <mxCell id="SRIS72dYtCs7Gk2PJul2-121" value="Selecciona la opción&#xa;Gestionar Inventario" style="strokeColor=#000000;" parent="SRIS72dYtCs7Gk2PJul2-118" vertex="1">
          <mxGeometry x="60" y="92" width="120" height="30" as="geometry" />
        </mxCell>
        <mxCell id="SRIS72dYtCs7Gk2PJul2-122" value="Selecciona la opción&#xa;de modificar producto" style="strokeColor=#000000;" parent="SRIS72dYtCs7Gk2PJul2-118" vertex="1">
          <mxGeometry x="57.5" y="142" width="125" height="38" as="geometry" />
        </mxCell>
        <mxCell id="SRIS72dYtCs7Gk2PJul2-123" value="Cambia los datos del&#xa;producto" style="strokeColor=#000000;" parent="SRIS72dYtCs7Gk2PJul2-118" vertex="1">
          <mxGeometry x="55" y="212" width="130" height="38" as="geometry" />
        </mxCell>
        <mxCell id="SRIS72dYtCs7Gk2PJul2-124" value="" style="edgeStyle=elbowEdgeStyle;elbow=horizontal;verticalAlign=bottom;endArrow=open;endSize=8;strokeColor=#000000;endFill=1;rounded=0;exitX=0.5;exitY=1;exitDx=0;exitDy=0;entryX=0.5;entryY=0;entryDx=0;entryDy=0;" parent="SRIS72dYtCs7Gk2PJul2-118" source="SRIS72dYtCs7Gk2PJul2-122" target="SRIS72dYtCs7Gk2PJul2-123" edge="1">
          <mxGeometry x="-64.5" y="-528" as="geometry">
            <mxPoint x="125" y="102" as="targetPoint" />
            <mxPoint x="125" y="80" as="sourcePoint" />
          </mxGeometry>
        </mxCell>
        <mxCell id="SRIS72dYtCs7Gk2PJul2-125" value="Sistema" style="swimlane;whiteSpace=wrap;startSize=23;strokeColor=#000000;" parent="1" vertex="1">
          <mxGeometry x="1120.5" y="568" width="342.25" height="472" as="geometry" />
        </mxCell>
        <mxCell id="SRIS72dYtCs7Gk2PJul2-126" value="Muestra el inventario&#xa;actual del sistema" style="strokeColor=#000000;" parent="SRIS72dYtCs7Gk2PJul2-125" vertex="1">
          <mxGeometry x="99.25" y="92" width="144.5" height="28" as="geometry" />
        </mxCell>
        <mxCell id="SRIS72dYtCs7Gk2PJul2-127" value="Presenta formulario &#xa;con información del&#xa;producto a ser cambiada" style="strokeColor=#000000;" parent="SRIS72dYtCs7Gk2PJul2-125" vertex="1">
          <mxGeometry x="99.25" y="162" width="140.75" height="48" as="geometry" />
        </mxCell>
        <mxCell id="SRIS72dYtCs7Gk2PJul2-128" value="Valida los datos" style="strokeColor=#000000;" parent="SRIS72dYtCs7Gk2PJul2-125" vertex="1">
          <mxGeometry x="97.38" y="242" width="144.5" height="28" as="geometry" />
        </mxCell>
        <mxCell id="SRIS72dYtCs7Gk2PJul2-129" value="Datos especificados&lt;div&gt;de manera correcta&lt;/div&gt;" style="rhombus;whiteSpace=wrap;html=1;strokeColor=#000000;" parent="SRIS72dYtCs7Gk2PJul2-125" vertex="1">
          <mxGeometry x="100.25" y="299" width="139.5" height="48" as="geometry" />
        </mxCell>
        <mxCell id="SRIS72dYtCs7Gk2PJul2-130" value="Guarda el nuevo &#xa;producto en el &#xa;inventario" style="strokeColor=#000000;" parent="SRIS72dYtCs7Gk2PJul2-125" vertex="1">
          <mxGeometry x="195.38" y="369" width="121.25" height="43" as="geometry" />
        </mxCell>
        <mxCell id="SRIS72dYtCs7Gk2PJul2-131" value="Muestra un mensaje&#xa;de error" style="strokeColor=#000000;" parent="SRIS72dYtCs7Gk2PJul2-125" vertex="1">
          <mxGeometry x="16" y="369" width="114.5" height="38" as="geometry" />
        </mxCell>
        <mxCell id="SRIS72dYtCs7Gk2PJul2-132" value="" style="ellipse;shape=endState;fillColor=#000000;strokeColor=#000000;" parent="SRIS72dYtCs7Gk2PJul2-125" vertex="1">
          <mxGeometry x="241" y="429" width="30" height="30" as="geometry" />
        </mxCell>
        <mxCell id="SRIS72dYtCs7Gk2PJul2-133" value="" style="endArrow=open;strokeColor=#000000;endFill=1;rounded=0;exitX=0.5;exitY=1;exitDx=0;exitDy=0;" parent="SRIS72dYtCs7Gk2PJul2-125" source="SRIS72dYtCs7Gk2PJul2-130" target="SRIS72dYtCs7Gk2PJul2-132" edge="1">
          <mxGeometry relative="1" as="geometry">
            <mxPoint x="257.5" y="419" as="sourcePoint" />
          </mxGeometry>
        </mxCell>
        <mxCell id="SRIS72dYtCs7Gk2PJul2-134" value="" style="edgeStyle=elbowEdgeStyle;elbow=horizontal;verticalAlign=bottom;endArrow=open;endSize=8;strokeColor=#000000;endFill=1;rounded=0;exitX=0.5;exitY=1;exitDx=0;exitDy=0;entryX=0.5;entryY=0;entryDx=0;entryDy=0;" parent="SRIS72dYtCs7Gk2PJul2-125" target="SRIS72dYtCs7Gk2PJul2-129" edge="1">
          <mxGeometry x="-789.5" y="-656" as="geometry">
            <mxPoint x="245.5" y="299" as="targetPoint" />
            <mxPoint x="170.25" y="272" as="sourcePoint" />
          </mxGeometry>
        </mxCell>
        <mxCell id="SRIS72dYtCs7Gk2PJul2-135" value="" style="edgeStyle=elbowEdgeStyle;elbow=horizontal;verticalAlign=bottom;endArrow=open;endSize=8;strokeColor=#000000;endFill=1;rounded=0;exitX=1;exitY=0.5;exitDx=0;exitDy=0;entryX=0.5;entryY=0;entryDx=0;entryDy=0;" parent="SRIS72dYtCs7Gk2PJul2-125" source="SRIS72dYtCs7Gk2PJul2-129" target="SRIS72dYtCs7Gk2PJul2-130" edge="1">
          <mxGeometry x="-1234.5" y="-784" as="geometry">
            <mxPoint x="180.5" y="309" as="targetPoint" />
            <mxPoint x="180.5" y="282" as="sourcePoint" />
            <Array as="points">
              <mxPoint x="255.5" y="329" />
            </Array>
          </mxGeometry>
        </mxCell>
        <mxCell id="SRIS72dYtCs7Gk2PJul2-136" value="" style="edgeStyle=elbowEdgeStyle;elbow=horizontal;verticalAlign=bottom;endArrow=open;endSize=8;strokeColor=#000000;endFill=1;rounded=0;exitX=0;exitY=0.5;exitDx=0;exitDy=0;" parent="SRIS72dYtCs7Gk2PJul2-125" source="SRIS72dYtCs7Gk2PJul2-129" edge="1">
          <mxGeometry x="-1679.5" y="-912" as="geometry">
            <mxPoint x="66" y="369" as="targetPoint" />
            <mxPoint x="249.5" y="333" as="sourcePoint" />
            <Array as="points">
              <mxPoint x="66" y="349" />
            </Array>
          </mxGeometry>
        </mxCell>
        <mxCell id="SRIS72dYtCs7Gk2PJul2-137" value="Si" style="text;html=1;align=center;verticalAlign=middle;whiteSpace=wrap;rounded=0;strokeColor=#000000;" parent="SRIS72dYtCs7Gk2PJul2-125" vertex="1">
          <mxGeometry x="256" y="317" width="25" height="20" as="geometry" />
        </mxCell>
        <mxCell id="SRIS72dYtCs7Gk2PJul2-138" value="No" style="text;html=1;align=center;verticalAlign=middle;whiteSpace=wrap;rounded=0;strokeColor=#000000;" parent="SRIS72dYtCs7Gk2PJul2-125" vertex="1">
          <mxGeometry x="36" y="317" width="25" height="20" as="geometry" />
        </mxCell>
        <mxCell id="SRIS72dYtCs7Gk2PJul2-139" value="Pide ingresar datos&#xa;validos" style="strokeColor=#000000;" parent="SRIS72dYtCs7Gk2PJul2-125" vertex="1">
          <mxGeometry x="16" y="421" width="114.5" height="38" as="geometry" />
        </mxCell>
        <mxCell id="SRIS72dYtCs7Gk2PJul2-140" value="" style="edgeStyle=elbowEdgeStyle;elbow=horizontal;verticalAlign=bottom;endArrow=open;endSize=8;strokeColor=#000000;endFill=1;rounded=0;entryX=0.5;entryY=0;entryDx=0;entryDy=0;exitX=0.5;exitY=1;exitDx=0;exitDy=0;" parent="SRIS72dYtCs7Gk2PJul2-125" source="SRIS72dYtCs7Gk2PJul2-131" target="SRIS72dYtCs7Gk2PJul2-139" edge="1">
          <mxGeometry x="-344.5" y="-88" as="geometry">
            <mxPoint x="119" y="299" as="targetPoint" />
            <mxPoint x="-75" y="290" as="sourcePoint" />
            <Array as="points" />
          </mxGeometry>
        </mxCell>
        <mxCell id="SRIS72dYtCs7Gk2PJul2-141" value="" style="edgeStyle=elbowEdgeStyle;elbow=horizontal;verticalAlign=bottom;endArrow=open;endSize=8;strokeColor=#000000;endFill=1;rounded=0;entryX=0;entryY=0.5;entryDx=0;entryDy=0;exitX=1;exitY=0.5;exitDx=0;exitDy=0;" parent="1" source="SRIS72dYtCs7Gk2PJul2-121" target="SRIS72dYtCs7Gk2PJul2-126" edge="1">
          <mxGeometry x="100" y="40" as="geometry">
            <mxPoint x="965" y="670" as="targetPoint" />
            <mxPoint x="965" y="648" as="sourcePoint" />
          </mxGeometry>
        </mxCell>
        <mxCell id="SRIS72dYtCs7Gk2PJul2-142" value="" style="edgeStyle=elbowEdgeStyle;elbow=horizontal;verticalAlign=bottom;endArrow=open;endSize=8;strokeColor=#000000;endFill=1;rounded=0;exitX=0.5;exitY=1;exitDx=0;exitDy=0;entryX=1;entryY=0.25;entryDx=0;entryDy=0;" parent="1" source="SRIS72dYtCs7Gk2PJul2-126" target="SRIS72dYtCs7Gk2PJul2-122" edge="1">
          <mxGeometry x="100.5" y="480" as="geometry">
            <mxPoint x="1365" y="770" as="targetPoint" />
            <mxPoint x="1062.5" y="739" as="sourcePoint" />
            <Array as="points">
              <mxPoint x="1292.5" y="710" />
            </Array>
          </mxGeometry>
        </mxCell>
        <mxCell id="SRIS72dYtCs7Gk2PJul2-143" value="" style="edgeStyle=elbowEdgeStyle;elbow=horizontal;verticalAlign=bottom;endArrow=open;endSize=8;strokeColor=#000000;endFill=1;rounded=0;entryX=0;entryY=0.5;entryDx=0;entryDy=0;" parent="1" target="SRIS72dYtCs7Gk2PJul2-127" edge="1">
          <mxGeometry x="100.5" y="480" as="geometry">
            <mxPoint x="1032.5" y="730" as="targetPoint" />
            <mxPoint x="1025.5" y="740" as="sourcePoint" />
            <Array as="points" />
          </mxGeometry>
        </mxCell>
        <mxCell id="SRIS72dYtCs7Gk2PJul2-144" value="" style="edgeStyle=elbowEdgeStyle;elbow=horizontal;verticalAlign=bottom;endArrow=open;endSize=8;strokeColor=#000000;endFill=1;rounded=0;entryX=0.5;entryY=1;entryDx=0;entryDy=0;exitX=0;exitY=0.5;exitDx=0;exitDy=0;" parent="1" source="SRIS72dYtCs7Gk2PJul2-139" target="SRIS72dYtCs7Gk2PJul2-123" edge="1">
          <mxGeometry x="100.5" y="480" as="geometry">
            <mxPoint x="1229.5" y="759" as="targetPoint" />
            <mxPoint x="1035.5" y="750" as="sourcePoint" />
            <Array as="points">
              <mxPoint x="960.5" y="910" />
            </Array>
          </mxGeometry>
        </mxCell>
        <mxCell id="SRIS72dYtCs7Gk2PJul2-145" value="&lt;font style=&quot;font-size: 18px;&quot;&gt;&lt;b&gt;Gestionar Inventario - Editar informacion de un producto&lt;/b&gt;&lt;/font&gt;" style="text;html=1;align=center;verticalAlign=middle;whiteSpace=wrap;rounded=0;strokeColor=#000000;" parent="1" vertex="1">
          <mxGeometry x="840" y="520" width="570" height="30" as="geometry" />
        </mxCell>
        <mxCell id="SRIS72dYtCs7Gk2PJul2-146" value="" style="edgeStyle=elbowEdgeStyle;elbow=horizontal;verticalAlign=bottom;endArrow=open;endSize=8;strokeColor=#000000;endFill=1;rounded=0;exitX=0.5;exitY=1;exitDx=0;exitDy=0;entryX=1;entryY=0.25;entryDx=0;entryDy=0;" parent="1" source="SRIS72dYtCs7Gk2PJul2-62" target="SRIS72dYtCs7Gk2PJul2-74" edge="1">
          <mxGeometry x="100.5" y="480" as="geometry">
            <mxPoint x="357" y="730" as="targetPoint" />
            <mxPoint x="627" y="698" as="sourcePoint" />
            <Array as="points">
              <mxPoint x="610" y="780" />
            </Array>
          </mxGeometry>
        </mxCell>
        <mxCell id="SRIS72dYtCs7Gk2PJul2-147" value="" style="edgeStyle=elbowEdgeStyle;elbow=horizontal;verticalAlign=bottom;endArrow=open;endSize=8;strokeColor=#000000;endFill=1;rounded=0;entryX=0;entryY=0.5;entryDx=0;entryDy=0;exitX=1;exitY=0.75;exitDx=0;exitDy=0;" parent="1" source="SRIS72dYtCs7Gk2PJul2-74" target="SRIS72dYtCs7Gk2PJul2-76" edge="1">
          <mxGeometry x="100" y="40" as="geometry">
            <mxPoint x="554" y="684" as="targetPoint" />
            <mxPoint x="355" y="685" as="sourcePoint" />
          </mxGeometry>
        </mxCell>
        <mxCell id="SRIS72dYtCs7Gk2PJul2-148" value="" style="edgeStyle=elbowEdgeStyle;elbow=horizontal;verticalAlign=bottom;endArrow=open;endSize=8;strokeColor=#000000;endFill=1;rounded=0;entryX=1;entryY=0.5;entryDx=0;entryDy=0;exitX=0.5;exitY=1;exitDx=0;exitDy=0;" parent="1" source="SRIS72dYtCs7Gk2PJul2-127" target="SRIS72dYtCs7Gk2PJul2-123" edge="1">
          <mxGeometry x="100.5" y="480" as="geometry">
            <mxPoint x="1218.5" y="800" as="targetPoint" />
            <mxPoint x="1024" y="786" as="sourcePoint" />
            <Array as="points">
              <mxPoint x="1290" y="790" />
            </Array>
          </mxGeometry>
        </mxCell>
        <mxCell id="SRIS72dYtCs7Gk2PJul2-149" value="" style="edgeStyle=elbowEdgeStyle;elbow=horizontal;verticalAlign=bottom;endArrow=open;endSize=8;strokeColor=#000000;endFill=1;rounded=0;entryX=0;entryY=0.5;entryDx=0;entryDy=0;exitX=1;exitY=0.75;exitDx=0;exitDy=0;" parent="1" source="SRIS72dYtCs7Gk2PJul2-123" target="SRIS72dYtCs7Gk2PJul2-128" edge="1">
          <mxGeometry x="100.5" y="480" as="geometry">
            <mxPoint x="1035" y="809" as="targetPoint" />
            <mxPoint x="1300" y="788" as="sourcePoint" />
            <Array as="points">
              <mxPoint x="1090" y="820" />
            </Array>
          </mxGeometry>
        </mxCell>
        <mxCell id="SRIS72dYtCs7Gk2PJul2-150" value="Administrador" style="swimlane;whiteSpace=wrap;strokeColor=#000000;" parent="1" vertex="1">
          <mxGeometry x="1500" y="568" width="280" height="472" as="geometry" />
        </mxCell>
        <mxCell id="SRIS72dYtCs7Gk2PJul2-151" value="" style="ellipse;shape=startState;fillColor=#000000;strokeColor=#000000;" parent="SRIS72dYtCs7Gk2PJul2-150" vertex="1">
          <mxGeometry x="100" y="40" width="30" height="30" as="geometry" />
        </mxCell>
        <mxCell id="SRIS72dYtCs7Gk2PJul2-152" value="" style="edgeStyle=elbowEdgeStyle;elbow=horizontal;verticalAlign=bottom;endArrow=open;endSize=8;strokeColor=#000000;endFill=1;rounded=0" parent="SRIS72dYtCs7Gk2PJul2-150" source="SRIS72dYtCs7Gk2PJul2-151" target="SRIS72dYtCs7Gk2PJul2-153" edge="1">
          <mxGeometry x="100" y="40" as="geometry">
            <mxPoint x="115" y="110" as="targetPoint" />
          </mxGeometry>
        </mxCell>
        <mxCell id="SRIS72dYtCs7Gk2PJul2-153" value="Selecciona la opción&#xa;Gestionar Inventario" style="strokeColor=#000000;" parent="SRIS72dYtCs7Gk2PJul2-150" vertex="1">
          <mxGeometry x="60" y="92" width="120" height="30" as="geometry" />
        </mxCell>
        <mxCell id="SRIS72dYtCs7Gk2PJul2-154" value="Selecciona un producto&#xa;para ser eliminado" style="strokeColor=#000000;" parent="SRIS72dYtCs7Gk2PJul2-150" vertex="1">
          <mxGeometry x="50" y="142" width="132.5" height="38" as="geometry" />
        </mxCell>
        <mxCell id="SRIS72dYtCs7Gk2PJul2-155" value="Confirma eliminacion" style="strokeColor=#000000;" parent="SRIS72dYtCs7Gk2PJul2-150" vertex="1">
          <mxGeometry x="50" y="210" width="132.5" height="40" as="geometry" />
        </mxCell>
        <mxCell id="SRIS72dYtCs7Gk2PJul2-156" value="" style="edgeStyle=elbowEdgeStyle;elbow=horizontal;verticalAlign=bottom;endArrow=open;endSize=8;strokeColor=#000000;endFill=1;rounded=0;exitX=0.5;exitY=1;exitDx=0;exitDy=0;entryX=0.5;entryY=0;entryDx=0;entryDy=0;" parent="SRIS72dYtCs7Gk2PJul2-150" source="SRIS72dYtCs7Gk2PJul2-154" target="SRIS72dYtCs7Gk2PJul2-155" edge="1">
          <mxGeometry x="-64.5" y="-528" as="geometry">
            <mxPoint x="125" y="102" as="targetPoint" />
            <mxPoint x="125" y="80" as="sourcePoint" />
          </mxGeometry>
        </mxCell>
        <mxCell id="SRIS72dYtCs7Gk2PJul2-157" value="Sistema" style="swimlane;whiteSpace=wrap;startSize=23;strokeColor=#000000;" parent="1" vertex="1">
          <mxGeometry x="1780.5" y="568" width="342.25" height="472" as="geometry" />
        </mxCell>
        <mxCell id="SRIS72dYtCs7Gk2PJul2-158" value="Muestra el inventario&#xa;actual del sistema" style="strokeColor=#000000;" parent="SRIS72dYtCs7Gk2PJul2-157" vertex="1">
          <mxGeometry x="99.25" y="92" width="144.5" height="28" as="geometry" />
        </mxCell>
        <mxCell id="SRIS72dYtCs7Gk2PJul2-159" value="Presenta mensaje de&#xa;confirmación para eliminar&#xa;producto" style="strokeColor=#000000;" parent="SRIS72dYtCs7Gk2PJul2-157" vertex="1">
          <mxGeometry x="99.25" y="162" width="140.75" height="48" as="geometry" />
        </mxCell>
        <mxCell id="SRIS72dYtCs7Gk2PJul2-161" value="Eliminación&amp;nbsp;&lt;div&gt;confirmada&lt;/div&gt;" style="rhombus;whiteSpace=wrap;html=1;strokeColor=#000000;" parent="SRIS72dYtCs7Gk2PJul2-157" vertex="1">
          <mxGeometry x="100.25" y="269" width="139.5" height="48" as="geometry" />
        </mxCell>
        <mxCell id="SRIS72dYtCs7Gk2PJul2-162" value="Elimina el producto&#xa;del inventario" style="strokeColor=#000000;" parent="SRIS72dYtCs7Gk2PJul2-157" vertex="1">
          <mxGeometry x="195.38" y="339" width="121.25" height="43" as="geometry" />
        </mxCell>
        <mxCell id="SRIS72dYtCs7Gk2PJul2-163" value="Muestra un mensaje&#xa;de eliminación&#xa;cancelada" style="strokeColor=#000000;" parent="SRIS72dYtCs7Gk2PJul2-157" vertex="1">
          <mxGeometry x="16" y="339" width="114" height="41" as="geometry" />
        </mxCell>
        <mxCell id="SRIS72dYtCs7Gk2PJul2-164" value="" style="ellipse;shape=endState;fillColor=#000000;strokeColor=#000000;" parent="SRIS72dYtCs7Gk2PJul2-157" vertex="1">
          <mxGeometry x="241" y="399" width="30" height="30" as="geometry" />
        </mxCell>
        <mxCell id="SRIS72dYtCs7Gk2PJul2-165" value="" style="endArrow=open;strokeColor=#000000;endFill=1;rounded=0;exitX=0.5;exitY=1;exitDx=0;exitDy=0;" parent="SRIS72dYtCs7Gk2PJul2-157" source="SRIS72dYtCs7Gk2PJul2-162" target="SRIS72dYtCs7Gk2PJul2-164" edge="1">
          <mxGeometry relative="1" as="geometry">
            <mxPoint x="257.5" y="389" as="sourcePoint" />
          </mxGeometry>
        </mxCell>
        <mxCell id="SRIS72dYtCs7Gk2PJul2-167" value="" style="edgeStyle=elbowEdgeStyle;elbow=horizontal;verticalAlign=bottom;endArrow=open;endSize=8;strokeColor=#000000;endFill=1;rounded=0;exitX=1;exitY=0.5;exitDx=0;exitDy=0;entryX=0.5;entryY=0;entryDx=0;entryDy=0;" parent="SRIS72dYtCs7Gk2PJul2-157" source="SRIS72dYtCs7Gk2PJul2-161" target="SRIS72dYtCs7Gk2PJul2-162" edge="1">
          <mxGeometry x="-1234.5" y="-784" as="geometry">
            <mxPoint x="180.5" y="279" as="targetPoint" />
            <mxPoint x="180.5" y="252" as="sourcePoint" />
            <Array as="points">
              <mxPoint x="255.5" y="299" />
            </Array>
          </mxGeometry>
        </mxCell>
        <mxCell id="SRIS72dYtCs7Gk2PJul2-168" value="" style="edgeStyle=elbowEdgeStyle;elbow=horizontal;verticalAlign=bottom;endArrow=open;endSize=8;strokeColor=#000000;endFill=1;rounded=0;exitX=0;exitY=0.5;exitDx=0;exitDy=0;" parent="SRIS72dYtCs7Gk2PJul2-157" source="SRIS72dYtCs7Gk2PJul2-161" edge="1">
          <mxGeometry x="-1679.5" y="-912" as="geometry">
            <mxPoint x="66" y="339" as="targetPoint" />
            <mxPoint x="249.5" y="303" as="sourcePoint" />
            <Array as="points">
              <mxPoint x="66" y="319" />
            </Array>
          </mxGeometry>
        </mxCell>
        <mxCell id="SRIS72dYtCs7Gk2PJul2-169" value="Si" style="text;html=1;align=center;verticalAlign=middle;whiteSpace=wrap;rounded=0;strokeColor=#000000;" parent="SRIS72dYtCs7Gk2PJul2-157" vertex="1">
          <mxGeometry x="256" y="287" width="25" height="20" as="geometry" />
        </mxCell>
        <mxCell id="SRIS72dYtCs7Gk2PJul2-170" value="No" style="text;html=1;align=center;verticalAlign=middle;whiteSpace=wrap;rounded=0;strokeColor=#000000;" parent="SRIS72dYtCs7Gk2PJul2-157" vertex="1">
          <mxGeometry x="36" y="287" width="25" height="20" as="geometry" />
        </mxCell>
        <mxCell id="SRIS72dYtCs7Gk2PJul2-176" value="" style="edgeStyle=elbowEdgeStyle;elbow=horizontal;verticalAlign=bottom;endArrow=open;endSize=8;strokeColor=#000000;endFill=1;rounded=0;entryX=0;entryY=0.75;entryDx=0;entryDy=0;exitX=0;exitY=0.5;exitDx=0;exitDy=0;" parent="SRIS72dYtCs7Gk2PJul2-157" source="SRIS72dYtCs7Gk2PJul2-163" target="SRIS72dYtCs7Gk2PJul2-158" edge="1">
          <mxGeometry x="-1680" y="-88" as="geometry">
            <mxPoint x="109" y="191" as="targetPoint" />
            <mxPoint x="49.5" y="432" as="sourcePoint" />
            <Array as="points">
              <mxPoint x="10" y="242" />
            </Array>
          </mxGeometry>
        </mxCell>
        <mxCell id="SRIS72dYtCs7Gk2PJul2-173" value="" style="edgeStyle=elbowEdgeStyle;elbow=horizontal;verticalAlign=bottom;endArrow=open;endSize=8;strokeColor=#000000;endFill=1;rounded=0;entryX=0;entryY=0.5;entryDx=0;entryDy=0;exitX=1;exitY=0.5;exitDx=0;exitDy=0;" parent="1" source="SRIS72dYtCs7Gk2PJul2-153" target="SRIS72dYtCs7Gk2PJul2-158" edge="1">
          <mxGeometry x="100" y="40" as="geometry">
            <mxPoint x="1625" y="670" as="targetPoint" />
            <mxPoint x="1625" y="648" as="sourcePoint" />
          </mxGeometry>
        </mxCell>
        <mxCell id="SRIS72dYtCs7Gk2PJul2-174" value="" style="edgeStyle=elbowEdgeStyle;elbow=horizontal;verticalAlign=bottom;endArrow=open;endSize=8;strokeColor=#000000;endFill=1;rounded=0;exitX=0.5;exitY=1;exitDx=0;exitDy=0;entryX=1;entryY=0.25;entryDx=0;entryDy=0;" parent="1" source="SRIS72dYtCs7Gk2PJul2-158" target="SRIS72dYtCs7Gk2PJul2-154" edge="1">
          <mxGeometry x="100.5" y="480" as="geometry">
            <mxPoint x="2025" y="770" as="targetPoint" />
            <mxPoint x="1722.5" y="739" as="sourcePoint" />
            <Array as="points">
              <mxPoint x="1952.5" y="710" />
            </Array>
          </mxGeometry>
        </mxCell>
        <mxCell id="SRIS72dYtCs7Gk2PJul2-175" value="" style="edgeStyle=elbowEdgeStyle;elbow=horizontal;verticalAlign=bottom;endArrow=open;endSize=8;strokeColor=#000000;endFill=1;rounded=0;entryX=0;entryY=0.5;entryDx=0;entryDy=0;" parent="1" target="SRIS72dYtCs7Gk2PJul2-159" edge="1">
          <mxGeometry x="100.5" y="480" as="geometry">
            <mxPoint x="1692.5" y="730" as="targetPoint" />
            <mxPoint x="1685.5" y="740" as="sourcePoint" />
            <Array as="points" />
          </mxGeometry>
        </mxCell>
        <mxCell id="SRIS72dYtCs7Gk2PJul2-177" value="&lt;font style=&quot;font-size: 18px;&quot;&gt;&lt;b&gt;Gestionar Inventario - Eliminar un producto&lt;/b&gt;&lt;/font&gt;" style="text;html=1;align=center;verticalAlign=middle;whiteSpace=wrap;rounded=0;strokeColor=#000000;" parent="1" vertex="1">
          <mxGeometry x="1500" y="520" width="570" height="30" as="geometry" />
        </mxCell>
        <mxCell id="SRIS72dYtCs7Gk2PJul2-178" value="" style="edgeStyle=elbowEdgeStyle;elbow=horizontal;verticalAlign=bottom;endArrow=open;endSize=8;strokeColor=#000000;endFill=1;rounded=0;entryX=1;entryY=0.5;entryDx=0;entryDy=0;exitX=0.5;exitY=1;exitDx=0;exitDy=0;" parent="1" source="SRIS72dYtCs7Gk2PJul2-159" target="SRIS72dYtCs7Gk2PJul2-155" edge="1">
          <mxGeometry x="100.5" y="480" as="geometry">
            <mxPoint x="1878.5" y="800" as="targetPoint" />
            <mxPoint x="1684" y="786" as="sourcePoint" />
            <Array as="points">
              <mxPoint x="1950" y="790" />
            </Array>
          </mxGeometry>
        </mxCell>
        <mxCell id="SRIS72dYtCs7Gk2PJul2-166" value="" style="edgeStyle=elbowEdgeStyle;elbow=horizontal;verticalAlign=bottom;endArrow=open;endSize=8;strokeColor=#000000;endFill=1;rounded=0;exitX=1;exitY=0.75;exitDx=0;exitDy=0;entryX=0.5;entryY=0;entryDx=0;entryDy=0;" parent="1" source="SRIS72dYtCs7Gk2PJul2-155" target="SRIS72dYtCs7Gk2PJul2-161" edge="1">
          <mxGeometry x="991" y="-88" as="geometry">
            <mxPoint x="2026" y="837" as="targetPoint" />
            <mxPoint x="1950.75" y="810" as="sourcePoint" />
            <Array as="points">
              <mxPoint x="1950" y="820" />
            </Array>
          </mxGeometry>
        </mxCell>
        <mxCell id="SRIS72dYtCs7Gk2PJul2-206" value="Administrador" style="swimlane;whiteSpace=wrap;strokeColor=#000000;" parent="1" vertex="1">
          <mxGeometry x="164.5" y="1088" width="280" height="472" as="geometry" />
        </mxCell>
        <mxCell id="SRIS72dYtCs7Gk2PJul2-207" value="" style="ellipse;shape=startState;fillColor=#000000;strokeColor=#000000;" parent="SRIS72dYtCs7Gk2PJul2-206" vertex="1">
          <mxGeometry x="100" y="40" width="30" height="30" as="geometry" />
        </mxCell>
        <mxCell id="SRIS72dYtCs7Gk2PJul2-208" value="" style="edgeStyle=elbowEdgeStyle;elbow=horizontal;verticalAlign=bottom;endArrow=open;endSize=8;strokeColor=#000000;endFill=1;rounded=0" parent="SRIS72dYtCs7Gk2PJul2-206" source="SRIS72dYtCs7Gk2PJul2-207" target="SRIS72dYtCs7Gk2PJul2-209" edge="1">
          <mxGeometry x="100" y="40" as="geometry">
            <mxPoint x="115" y="110" as="targetPoint" />
          </mxGeometry>
        </mxCell>
        <mxCell id="SRIS72dYtCs7Gk2PJul2-209" value="Selecciona la opción&#xa;Gestionar Cuenta" style="strokeColor=#000000;" parent="SRIS72dYtCs7Gk2PJul2-206" vertex="1">
          <mxGeometry x="60" y="92" width="120" height="30" as="geometry" />
        </mxCell>
        <mxCell id="SRIS72dYtCs7Gk2PJul2-210" value="Selecciona modificar&#xa;Información" style="strokeColor=#000000;" parent="SRIS72dYtCs7Gk2PJul2-206" vertex="1">
          <mxGeometry x="50" y="142" width="132.5" height="38" as="geometry" />
        </mxCell>
        <mxCell id="SRIS72dYtCs7Gk2PJul2-211" value="Cambia los datos&#xa;personales" style="strokeColor=#000000;" parent="SRIS72dYtCs7Gk2PJul2-206" vertex="1">
          <mxGeometry x="50" y="200" width="132.5" height="40" as="geometry" />
        </mxCell>
        <mxCell id="SRIS72dYtCs7Gk2PJul2-212" value="" style="edgeStyle=elbowEdgeStyle;elbow=horizontal;verticalAlign=bottom;endArrow=open;endSize=8;strokeColor=#000000;endFill=1;rounded=0;exitX=0.5;exitY=1;exitDx=0;exitDy=0;entryX=0.5;entryY=0;entryDx=0;entryDy=0;" parent="SRIS72dYtCs7Gk2PJul2-206" source="SRIS72dYtCs7Gk2PJul2-210" target="SRIS72dYtCs7Gk2PJul2-211" edge="1">
          <mxGeometry x="-64.5" y="-528" as="geometry">
            <mxPoint x="125" y="102" as="targetPoint" />
            <mxPoint x="125" y="80" as="sourcePoint" />
          </mxGeometry>
        </mxCell>
        <mxCell id="SRIS72dYtCs7Gk2PJul2-213" value="Sistema" style="swimlane;whiteSpace=wrap;startSize=23;strokeColor=#000000;" parent="1" vertex="1">
          <mxGeometry x="445" y="1088" width="342.25" height="472" as="geometry" />
        </mxCell>
        <mxCell id="SRIS72dYtCs7Gk2PJul2-214" value="Muestra la información &#xa;actual de la cuenta &#xa;del administrador." style="strokeColor=#000000;" parent="SRIS72dYtCs7Gk2PJul2-213" vertex="1">
          <mxGeometry x="98.88" y="82" width="144.5" height="50" as="geometry" />
        </mxCell>
        <mxCell id="SRIS72dYtCs7Gk2PJul2-232" value="Presenta formulario &#xa;con información del&#xa;administrador a ser&#xa;cambiada" style="strokeColor=#000000;" parent="SRIS72dYtCs7Gk2PJul2-213" vertex="1">
          <mxGeometry x="98.88" y="142" width="140.75" height="58" as="geometry" />
        </mxCell>
        <mxCell id="SRIS72dYtCs7Gk2PJul2-233" value="Valida los datos" style="strokeColor=#000000;" parent="SRIS72dYtCs7Gk2PJul2-213" vertex="1">
          <mxGeometry x="99.44" y="240" width="144.5" height="28" as="geometry" />
        </mxCell>
        <mxCell id="SRIS72dYtCs7Gk2PJul2-234" value="Datos especificados&lt;div&gt;de manera correcta&lt;/div&gt;" style="rhombus;whiteSpace=wrap;html=1;strokeColor=#000000;" parent="SRIS72dYtCs7Gk2PJul2-213" vertex="1">
          <mxGeometry x="103.19" y="287" width="139.5" height="48" as="geometry" />
        </mxCell>
        <mxCell id="SRIS72dYtCs7Gk2PJul2-235" value="Guarda los cambios" style="strokeColor=#000000;" parent="SRIS72dYtCs7Gk2PJul2-213" vertex="1">
          <mxGeometry x="198.32" y="357" width="121.25" height="43" as="geometry" />
        </mxCell>
        <mxCell id="SRIS72dYtCs7Gk2PJul2-236" value="Muestra un mensaje&#xa;de error" style="strokeColor=#000000;" parent="SRIS72dYtCs7Gk2PJul2-213" vertex="1">
          <mxGeometry x="18.939999999999998" y="357" width="114.5" height="38" as="geometry" />
        </mxCell>
        <mxCell id="SRIS72dYtCs7Gk2PJul2-237" value="" style="ellipse;shape=endState;fillColor=#000000;strokeColor=#000000;" parent="SRIS72dYtCs7Gk2PJul2-213" vertex="1">
          <mxGeometry x="243.94" y="417" width="30" height="30" as="geometry" />
        </mxCell>
        <mxCell id="SRIS72dYtCs7Gk2PJul2-238" value="" style="endArrow=open;strokeColor=#000000;endFill=1;rounded=0;exitX=0.5;exitY=1;exitDx=0;exitDy=0;" parent="SRIS72dYtCs7Gk2PJul2-213" source="SRIS72dYtCs7Gk2PJul2-235" target="SRIS72dYtCs7Gk2PJul2-237" edge="1">
          <mxGeometry relative="1" as="geometry">
            <mxPoint x="260.44" y="407" as="sourcePoint" />
          </mxGeometry>
        </mxCell>
        <mxCell id="SRIS72dYtCs7Gk2PJul2-239" value="" style="edgeStyle=elbowEdgeStyle;elbow=horizontal;verticalAlign=bottom;endArrow=open;endSize=8;strokeColor=#000000;endFill=1;rounded=0;exitX=0.5;exitY=1;exitDx=0;exitDy=0;entryX=0.5;entryY=0;entryDx=0;entryDy=0;" parent="SRIS72dYtCs7Gk2PJul2-213" source="SRIS72dYtCs7Gk2PJul2-233" target="SRIS72dYtCs7Gk2PJul2-234" edge="1">
          <mxGeometry x="-1234.5" y="-1744" as="geometry">
            <mxPoint x="248.44" y="287" as="targetPoint" />
            <mxPoint x="-54.06" y="256" as="sourcePoint" />
          </mxGeometry>
        </mxCell>
        <mxCell id="SRIS72dYtCs7Gk2PJul2-240" value="" style="edgeStyle=elbowEdgeStyle;elbow=horizontal;verticalAlign=bottom;endArrow=open;endSize=8;strokeColor=#000000;endFill=1;rounded=0;exitX=1;exitY=0.5;exitDx=0;exitDy=0;entryX=0.5;entryY=0;entryDx=0;entryDy=0;" parent="SRIS72dYtCs7Gk2PJul2-213" source="SRIS72dYtCs7Gk2PJul2-234" target="SRIS72dYtCs7Gk2PJul2-235" edge="1">
          <mxGeometry x="-1679.5" y="-1872" as="geometry">
            <mxPoint x="183.44" y="297" as="targetPoint" />
            <mxPoint x="183.44" y="270" as="sourcePoint" />
            <Array as="points">
              <mxPoint x="258.44" y="317" />
            </Array>
          </mxGeometry>
        </mxCell>
        <mxCell id="SRIS72dYtCs7Gk2PJul2-241" value="" style="edgeStyle=elbowEdgeStyle;elbow=horizontal;verticalAlign=bottom;endArrow=open;endSize=8;strokeColor=#000000;endFill=1;rounded=0;exitX=0;exitY=0.5;exitDx=0;exitDy=0;" parent="SRIS72dYtCs7Gk2PJul2-213" source="SRIS72dYtCs7Gk2PJul2-234" edge="1">
          <mxGeometry x="-2124.5" y="-2000" as="geometry">
            <mxPoint x="68.94" y="357" as="targetPoint" />
            <mxPoint x="252.44" y="321" as="sourcePoint" />
            <Array as="points">
              <mxPoint x="68.94" y="337" />
            </Array>
          </mxGeometry>
        </mxCell>
        <mxCell id="SRIS72dYtCs7Gk2PJul2-242" value="Si" style="text;html=1;align=center;verticalAlign=middle;whiteSpace=wrap;rounded=0;strokeColor=#000000;" parent="SRIS72dYtCs7Gk2PJul2-213" vertex="1">
          <mxGeometry x="258.94" y="305" width="25" height="20" as="geometry" />
        </mxCell>
        <mxCell id="SRIS72dYtCs7Gk2PJul2-243" value="No" style="text;html=1;align=center;verticalAlign=middle;whiteSpace=wrap;rounded=0;strokeColor=#000000;" parent="SRIS72dYtCs7Gk2PJul2-213" vertex="1">
          <mxGeometry x="38.94" y="305" width="25" height="20" as="geometry" />
        </mxCell>
        <mxCell id="SRIS72dYtCs7Gk2PJul2-244" value="Pide ingresar datos&#xa;validos" style="strokeColor=#000000;" parent="SRIS72dYtCs7Gk2PJul2-213" vertex="1">
          <mxGeometry x="18.939999999999998" y="409" width="114.5" height="38" as="geometry" />
        </mxCell>
        <mxCell id="SRIS72dYtCs7Gk2PJul2-245" value="" style="edgeStyle=elbowEdgeStyle;elbow=horizontal;verticalAlign=bottom;endArrow=open;endSize=8;strokeColor=#000000;endFill=1;rounded=0;entryX=0.5;entryY=0;entryDx=0;entryDy=0;exitX=0.5;exitY=1;exitDx=0;exitDy=0;" parent="SRIS72dYtCs7Gk2PJul2-213" source="SRIS72dYtCs7Gk2PJul2-236" target="SRIS72dYtCs7Gk2PJul2-244" edge="1">
          <mxGeometry x="-789.5" y="-1176" as="geometry">
            <mxPoint x="121.94" y="287" as="targetPoint" />
            <mxPoint x="-72.06" y="278" as="sourcePoint" />
            <Array as="points" />
          </mxGeometry>
        </mxCell>
        <mxCell id="SRIS72dYtCs7Gk2PJul2-226" value="" style="edgeStyle=elbowEdgeStyle;elbow=horizontal;verticalAlign=bottom;endArrow=open;endSize=8;strokeColor=#000000;endFill=1;rounded=0;entryX=0;entryY=0.5;entryDx=0;entryDy=0;exitX=1;exitY=0.5;exitDx=0;exitDy=0;" parent="1" source="SRIS72dYtCs7Gk2PJul2-209" target="SRIS72dYtCs7Gk2PJul2-214" edge="1">
          <mxGeometry x="100" y="40" as="geometry">
            <mxPoint x="289.5" y="1190" as="targetPoint" />
            <mxPoint x="289.5" y="1168" as="sourcePoint" />
          </mxGeometry>
        </mxCell>
        <mxCell id="SRIS72dYtCs7Gk2PJul2-228" value="" style="edgeStyle=elbowEdgeStyle;elbow=horizontal;verticalAlign=bottom;endArrow=open;endSize=8;strokeColor=#000000;endFill=1;rounded=0;entryX=0;entryY=0.5;entryDx=0;entryDy=0;" parent="1" target="SRIS72dYtCs7Gk2PJul2-232" edge="1">
          <mxGeometry x="100.5" y="480" as="geometry">
            <mxPoint x="357" y="1250" as="targetPoint" />
            <mxPoint x="350" y="1260" as="sourcePoint" />
            <Array as="points" />
          </mxGeometry>
        </mxCell>
        <mxCell id="SRIS72dYtCs7Gk2PJul2-229" value="&lt;span style=&quot;font-size: 18px;&quot;&gt;&lt;b&gt;Gestionar Cuenta&lt;/b&gt;&lt;/span&gt;" style="text;html=1;align=center;verticalAlign=middle;whiteSpace=wrap;rounded=0;strokeColor=#000000;" parent="1" vertex="1">
          <mxGeometry x="164.5" y="1050" width="570" height="30" as="geometry" />
        </mxCell>
        <mxCell id="SRIS72dYtCs7Gk2PJul2-230" value="" style="edgeStyle=elbowEdgeStyle;elbow=horizontal;verticalAlign=bottom;endArrow=open;endSize=8;strokeColor=#000000;endFill=1;rounded=0;entryX=1;entryY=0.5;entryDx=0;entryDy=0;exitX=0.5;exitY=1;exitDx=0;exitDy=0;" parent="1" source="SRIS72dYtCs7Gk2PJul2-232" target="SRIS72dYtCs7Gk2PJul2-211" edge="1">
          <mxGeometry x="100.5" y="480" as="geometry">
            <mxPoint x="543" y="1320" as="targetPoint" />
            <mxPoint x="348.5" y="1306" as="sourcePoint" />
            <Array as="points">
              <mxPoint x="614.5" y="1310" />
            </Array>
          </mxGeometry>
        </mxCell>
        <mxCell id="SRIS72dYtCs7Gk2PJul2-246" value="" style="edgeStyle=elbowEdgeStyle;elbow=horizontal;verticalAlign=bottom;endArrow=open;endSize=8;strokeColor=#000000;endFill=1;rounded=0;entryX=0.5;entryY=0;entryDx=0;entryDy=0;exitX=1;exitY=0.75;exitDx=0;exitDy=0;" parent="1" source="SRIS72dYtCs7Gk2PJul2-211" target="SRIS72dYtCs7Gk2PJul2-233" edge="1">
          <mxGeometry x="100.5" y="480" as="geometry">
            <mxPoint x="357" y="1318" as="targetPoint" />
            <mxPoint x="624" y="1298" as="sourcePoint" />
            <Array as="points">
              <mxPoint x="617" y="1318" />
            </Array>
          </mxGeometry>
        </mxCell>
        <mxCell id="SRIS72dYtCs7Gk2PJul2-247" value="" style="edgeStyle=elbowEdgeStyle;elbow=horizontal;verticalAlign=bottom;endArrow=open;endSize=8;strokeColor=#000000;endFill=1;rounded=0;entryX=0.5;entryY=1;entryDx=0;entryDy=0;exitX=0;exitY=0.5;exitDx=0;exitDy=0;" parent="1" source="SRIS72dYtCs7Gk2PJul2-244" target="SRIS72dYtCs7Gk2PJul2-211" edge="1">
          <mxGeometry x="100.5" y="480" as="geometry">
            <mxPoint x="357" y="1318" as="targetPoint" />
            <mxPoint x="624" y="1298" as="sourcePoint" />
            <Array as="points">
              <mxPoint x="280" y="1400" />
            </Array>
          </mxGeometry>
        </mxCell>
      </root>
    </mxGraphModel>
  </diagram>
</mxfile>
